<?xml version="1.0" encoding="UTF-8"?>
<!DOCTYPE svg PUBLIC "-//W3C//DTD SVG 1.1//EN" "http://www.w3.org/Graphics/SVG/1.1/DTD/svg11.dtd">
<!-- Creator: CorelDRAW 2021.5 -->
<svg xmlns="http://www.w3.org/2000/svg" xml:space="preserve" width="42.3333mm" height="35.3183mm" version="1.1" style="shape-rendering:geometricPrecision; text-rendering:geometricPrecision; image-rendering:optimizeQuality; fill-rule:evenodd; clip-rule:evenodd"
viewBox="0 0 308.64 257.49"
 xmlns:xlink="http://www.w3.org/1999/xlink"
 xmlns:xodm="http://www.corel.com/coreldraw/odm/2003">
 <defs>
  <style type="text/css">
   <![CDATA[
    .fil0 {fill:#C17C7C;fill-rule:nonzero}
   ]]>
  </style>
 </defs>
 <g id="Layer_x0020_1">
  <metadata id="CorelCorpID_0Corel-Layer"/>
  <path id="back2" class="fil0" d="M177.41 240.25l-15.29 13.09c-6.48,5.55 -16.94,5.55 -23.35,0l-133.91 -114.56c-6.48,-5.55 -6.48,-14.51 0,-19.99l133.91 -114.63c6.48,-5.54 16.94,-5.54 23.35,0l15.29 13.09c6.54,5.6 6.4,14.74 -0.28,20.22l-83.01 67.69 197.97 0c9.16,0 16.53,6.31 16.53,14.15l0 18.87c0,7.84 -7.37,14.15 -16.53,14.15l-197.97 0 83.01 67.69c6.75,5.48 6.89,14.62 0.28,20.22z"/>
 </g>
</svg>
