<?xml version="1.0" encoding="UTF-8"?>
<!DOCTYPE svg PUBLIC "-//W3C//DTD SVG 1.1//EN" "http://www.w3.org/Graphics/SVG/1.1/DTD/svg11.dtd">
<!-- Creator: CorelDRAW 2021.5 -->
<svg xmlns="http://www.w3.org/2000/svg" xml:space="preserve" width="42.3304mm" height="35.3159mm" version="1.1" style="shape-rendering:geometricPrecision; text-rendering:geometricPrecision; image-rendering:optimizeQuality; fill-rule:evenodd; clip-rule:evenodd"
viewBox="0 0 311.87 260.19"
 xmlns:xlink="http://www.w3.org/1999/xlink"
 xmlns:xodm="http://www.corel.com/coreldraw/odm/2003">
 <defs>
  <style type="text/css">
   <![CDATA[
    .fil0 {fill:#FF3399;fill-rule:nonzero}
   ]]>
  </style>
 </defs>
 <g id="Layer_x0020_1">
  <metadata id="CorelCorpID_0Corel-Layer"/>
  <path id="back3" class="fil0" d="M179.27 242.76l-15.45 13.22c-6.54,5.6 -17.12,5.6 -23.59,0l-135.31 -115.76c-6.54,-5.6 -6.54,-14.66 0,-20.2l135.31 -115.83c6.54,-5.6 17.12,-5.6 23.59,0l15.45 13.23c6.61,5.66 6.47,14.89 -0.28,20.44l-83.88 68.4 200.04 0c9.26,0 16.7,6.38 16.7,14.3l0 19.06c0,7.92 -7.45,14.3 -16.7,14.3l-200.04 0 83.88 68.4c6.82,5.54 6.96,14.78 0.28,20.44z"/>
 </g>
</svg>
