<?xml version="1.0" encoding="UTF-8"?>
<!DOCTYPE svg PUBLIC "-//W3C//DTD SVG 1.1//EN" "http://www.w3.org/Graphics/SVG/1.1/DTD/svg11.dtd">
<!-- Creator: CorelDRAW 2021.5 -->
<svg xmlns="http://www.w3.org/2000/svg" xml:space="preserve" width="42.3333mm" height="42.3333mm" version="1.1" style="shape-rendering:geometricPrecision; text-rendering:geometricPrecision; image-rendering:optimizeQuality; fill-rule:evenodd; clip-rule:evenodd"
viewBox="0 0 308.64 308.64"
 xmlns:xlink="http://www.w3.org/1999/xlink"
 xmlns:xodm="http://www.corel.com/coreldraw/odm/2003">
 <defs>
  <style type="text/css">
   <![CDATA[
    .fil0 {fill:#C17C7C}
    .fil1 {fill:white;fill-rule:nonzero}
   ]]>
  </style>
 </defs>
 <g id="Layer_x0020_1">
  <metadata id="CorelCorpID_0Corel-Layer"/>
  <g id="back1">
   <circle class="fil0" cx="154.32" cy="154.32" r="154.32"/>
   <path class="fil1" d="M165.32 207.41l-7.28 6.23c-3.08,2.64 -8.07,2.64 -11.12,0l-63.76 -54.55c-3.08,-2.64 -3.08,-6.91 0,-9.52l63.76 -54.58c3.08,-2.64 8.07,-2.64 11.12,0l7.28 6.23c3.12,2.67 3.05,7.02 -0.13,9.63l-39.53 32.23 94.27 0c4.36,0 7.87,3.01 7.87,6.74l0 8.98c0,3.73 -3.51,6.74 -7.87,6.74l-94.27 0 39.53 32.23c3.21,2.61 3.28,6.96 0.13,9.63z"/>
  </g>
 </g>
</svg>
