<?xml version="1.0" encoding="UTF-8"?>
<!DOCTYPE svg PUBLIC "-//W3C//DTD SVG 1.1//EN" "http://www.w3.org/Graphics/SVG/1.1/DTD/svg11.dtd">
<!-- Creator: CorelDRAW 2021.5 -->
<svg xmlns="http://www.w3.org/2000/svg" xml:space="preserve" width="42.3333mm" height="35.3184mm" version="1.1" style="shape-rendering:geometricPrecision; text-rendering:geometricPrecision; image-rendering:optimizeQuality; fill-rule:evenodd; clip-rule:evenodd"
viewBox="0 0 417.51 348.32"
 xmlns:xlink="http://www.w3.org/1999/xlink"
 xmlns:xodm="http://www.corel.com/coreldraw/odm/2003">
 <defs>
  <style type="text/css">
   <![CDATA[
    .fil0 {fill:#C17C7C;fill-rule:nonzero}
   ]]>
  </style>
 </defs>
 <g id="Layer_x0020_1">
  <metadata id="CorelCorpID_0Corel-Layer"/>
  <path id="next2" class="fil0" d="M177.51 324.99l20.69 17.7c8.76,7.5 22.92,7.5 31.59,0l181.15 -154.97c8.76,-7.5 8.76,-19.63 0,-27.04l-181.15 -155.06c-8.76,-7.5 -22.92,-7.5 -31.59,0l-20.69 17.71c-8.85,7.58 -8.66,19.94 0.37,27.36l112.29 91.57 -267.81 0c-12.39,0 -22.36,8.54 -22.36,19.14l0 25.52c0,10.61 9.97,19.14 22.36,19.14l267.81 0 -112.29 91.57c-9.13,7.41 -9.32,19.78 -0.37,27.36z"/>
 </g>
</svg>
