<?xml version="1.0" encoding="UTF-8"?>
<!DOCTYPE svg PUBLIC "-//W3C//DTD SVG 1.1//EN" "http://www.w3.org/Graphics/SVG/1.1/DTD/svg11.dtd">
<!-- Creator: CorelDRAW 2021.5 -->
<svg xmlns="http://www.w3.org/2000/svg" xml:space="preserve" width="42.3304mm" height="35.3159mm" version="1.1" style="shape-rendering:geometricPrecision; text-rendering:geometricPrecision; image-rendering:optimizeQuality; fill-rule:evenodd; clip-rule:evenodd"
viewBox="0 0 415.3 346.48"
 xmlns:xlink="http://www.w3.org/1999/xlink"
 xmlns:xodm="http://www.corel.com/coreldraw/odm/2003">
 <defs>
  <style type="text/css">
   <![CDATA[
    .fil0 {fill:#FF3399;fill-rule:nonzero}
   ]]>
  </style>
 </defs>
 <g id="Layer_x0020_1">
  <metadata id="CorelCorpID_0Corel-Layer"/>
  <path id="next3" class="fil0" d="M176.57 323.27l20.58 17.61c8.71,7.46 22.8,7.46 31.42,0l180.19 -154.15c8.71,-7.46 8.71,-19.52 0,-26.9l-180.19 -154.24c-8.71,-7.46 -22.8,-7.46 -31.42,0l-20.58 17.62c-8.8,7.54 -8.62,19.83 0.37,27.21l111.69 91.08 -266.39 0c-12.33,0 -22.25,8.49 -22.25,19.04l0 25.39c0,10.55 9.92,19.04 22.25,19.04l266.39 0 -111.69 91.08c-9.08,7.38 -9.27,19.68 -0.37,27.21z"/>
 </g>
</svg>
